<?xml version="1.0" encoding="iso-8859-1"?>
<!-- Generator: Adobe Illustrator 19.0.0, SVG Export Plug-In . SVG Version: 6.00 Build 0)  -->
<svg version="1.1" id="Layer_1" xmlns="http://www.w3.org/2000/svg" xmlns:xlink="http://www.w3.org/1999/xlink" x="0px" y="0px"
	 viewBox="0 0 512 512" style="enable-background:new 0 0 512 512;" xml:space="preserve">
<path style="fill:#FFC05D;" d="M503.354,189.854C474.193,80.533,374.509,0,256,0C114.615,0,0,114.615,0,256
	c0,118.509,80.533,218.193,189.854,247.354L503.354,189.854z"/>
<path style="fill:#FFA358;" d="M512,256c0-22.876-3.017-45.044-8.646-66.146L372,58.5l-232,395l49.854,49.854
	C210.956,508.983,233.124,512,256,512C397.385,512,512,397.385,512,256z"/>
<polygon style="fill:#FFCDAF;" points="392,138.5 389.46,178.5 236,208.5 236,138.5 "/>
<g>
	<polygon style="fill:#FFE5C0;" points="256,138.5 256,208.5 122.54,178.5 120,138.5 	"/>
	<polygon style="fill:#FFE5C0;" points="389.46,178.5 385.65,238.5 226,268.5 256,178.5 	"/>
	<polygon style="fill:#FFE5C0;" points="375.81,393.5 372,453.5 256,453.5 226,363.5 	"/>
</g>
<g>
	<polygon style="fill:#FFFDD2;" points="256,363.5 256,453.5 140,453.5 136.19,393.5 	"/>
	<polygon style="fill:#FFFDD2;" points="256,178.5 256,268.5 126.35,238.5 122.54,178.5 	"/>
</g>
<polygon style="fill:#872D20;" points="256,58.5 236,138.5 392,138.5 372,58.5 "/>
<polygon style="fill:#C6432D;" points="140,58.5 120,138.5 256,138.5 256,58.5 "/>
<polygon style="fill:#642A24;" points="256,128.5 222.667,143.5 256,158.5 412,158.5 412,128.5 "/>
<rect x="100" y="128.5" style="fill:#872D20;" width="156" height="30"/>
<polygon style="fill:#C6432D;" points="385.65,238.5 375.81,393.5 256,393.5 226,316 256,238.5 "/>
<polygon style="fill:#E2573E;" points="256,238.5 256,393.5 136.19,393.5 126.35,238.5 "/>
<path style="fill:#642A24;" d="M256,263.5L236,311l20,57.5c22.091,0,40-17.909,40-40v-25C296,281.409,278.091,263.5,256,263.5z"/>
<path style="fill:#872D20;" d="M216,303.5v25c0,22.091,17.909,40,40,40v-105C233.909,263.5,216,281.409,216,303.5z"/>
<g>
</g>
<g>
</g>
<g>
</g>
<g>
</g>
<g>
</g>
<g>
</g>
<g>
</g>
<g>
</g>
<g>
</g>
<g>
</g>
<g>
</g>
<g>
</g>
<g>
</g>
<g>
</g>
<g>
</g>
</svg>
