<svg id="Fill_out_line" height="512" viewBox="0 0 512 512" width="512" xmlns="http://www.w3.org/2000/svg" data-name="Fill out line"><path d="m96 136-72 72h288l72-72v-48h-288z" fill="#fff1d8"/><path d="m384 72h-288v64l-8 8h288l8-8z" fill="#d6b7a5"/><path d="m368 24h-288a48 48 0 0 0 -48 48v8a32 32 0 0 0 32 32h288z" fill="#eedbc4"/><path d="m416 136v-64a47.99987 47.99987 0 0 0 -48-48 47.99987 47.99987 0 0 0 -48 48v8a32.00018 32.00018 0 0 0 32 32 31.99986 31.99986 0 0 0 32-32v56l-72 72v280h176v-280z" fill="#e9cebe"/><path d="m24 208h288v280h-288z" fill="#eedbc4"/><g fill="#dc9265"><path d="m212 324-1.34009 1.33984-22.65991 22.66016a50.916 50.916 0 0 1 -72 0c-.84009-.84009-1.6499-1.71-2.40991-2.59009a50.91282 50.91282 0 0 1 2.40991-69.40991l24-24a50.88086 50.88086 0 0 1 72 0q.94482.94482 1.83008 1.91992a50.92654 50.92654 0 0 1 -1.83008 70.08008z"/><path d="m252 412-24 24a50.91169 50.91169 0 0 1 -72-72l24-24a50.88112 50.88112 0 0 1 72 0c.40991.40991.82007.83008 1.21 1.26a50.90586 50.90586 0 0 1 -1.21 70.74z"/><path d="m172 412-24 24a50.88086 50.88086 0 0 1 -72 0c-.6001-.6001-1.16992-1.2-1.73-1.82007a50.92023 50.92023 0 0 1 1.73-70.17993l24-24a50.88086 50.88086 0 0 1 72 0c.62988.62988 1.24 1.27 1.83008 1.92993a50.914 50.914 0 0 1 -1.83008 70.07007z"/></g><path d="m424 132.68652v-60.68652a56.0629 56.0629 0 0 0 -56-56h-288a56.0629 56.0629 0 0 0 -56 56v8a40.04584 40.04584 0 0 0 40 40h24v12.68652l-69.65723 69.65625a8.00235 8.00235 0 0 0 -2.34277 5.65723v280a8.00039 8.00039 0 0 0 8 8h464a8.00039 8.00039 0 0 0 8-8v-280a8.00235 8.00235 0 0 0 -2.34277-5.65723zm-384-52.68652v-8a40.04584 40.04584 0 0 1 40-40h248.86133a55.82388 55.82388 0 0 0 -16.86133 40v8a39.79015 39.79015 0 0 0 8.022 24h-256.022a24.0275 24.0275 0 0 1 -24-24zm-8 136h192v-16h-180.68628l58.34351-58.34277a8.00235 8.00235 0 0 0 2.34277-5.65723v-16h248a39.79739 39.79739 0 0 0 24-8.01855v20.70507l-69.65723 69.65625a8.00235 8.00235 0 0 0 -2.34277 5.65723v272h-272zm448 264h-160v-268.68652l69.65723-69.65625a8.00235 8.00235 0 0 0 2.34277-5.65723v-64a24 24 0 0 0 -48 0v8a8 8 0 0 0 16 0v-8a8 8 0 0 1 16 0v8a24 24 0 0 1 -48 0v-8a40 40 0 0 1 80 0v64a8.00235 8.00235 0 0 0 2.34277 5.65723l69.65723 69.65625z"/><path d="m257.65723 334.34277a58.56879 58.56879 0 0 0 -30.98828-16.249 58.92369 58.92369 0 0 0 -92.32618-71.751l-24 24a58.873 58.873 0 0 0 -13.70361 61.82666q-1.16931 1.0514-2.29639 2.17334l-24 24a58.90588 58.90588 0 0 0 81.65723 84.88965 58.96078 58.96078 0 0 0 81.65723-1.57519l24-24a58.97922 58.97922 0 0 0 0-83.31446zm-71.47559 10.81494a42.9143 42.9143 0 0 1 50.58008-6.72216l-25.04297 37.56445h-16.83423a58.89371 58.89371 0 0 0 -8.70288-30.84229zm32.72949-57.15771a42.60892 42.60892 0 0 1 -12.09228 29.843 58.56666 58.56666 0 0 0 -30.81885 14.92458 58.4944 58.4944 0 0 0 -24.51221-13.57739l4.79346-7.19019h19.71875a8 8 0 0 0 6.94629-4.03125l26.65625-46.64844a42.57625 42.57625 0 0 1 9.30859 26.67969zm-97.2539-6.34277 24-24a42.93065 42.93065 0 0 1 51.582-6.95093l-25.88181 45.2937h-19.35742a7.99943 7.99943 0 0 0 -6.65625 3.5625l-11.74023 17.61084a58.97273 58.97273 0 0 0 -23.12012 5.73877 42.89367 42.89367 0 0 1 11.17383-41.25488zm-40 88 24-24a42.97263 42.97263 0 0 1 51.57592-6.93994l-25.87573 45.28271h-19.35742a7.99943 7.99943 0 0 0 -6.65625 3.5625l-26.47168 39.70728a42.96693 42.96693 0 0 1 2.78516-57.61255zm9.59033 67.89331 25.03369-37.55054h19.71875a8 8 0 0 0 6.94629-4.03125l26.655-46.64648a42.96623 42.96623 0 0 1 -3.25855 57.0205l-24 24a42.97635 42.97635 0 0 1 -51.09518 7.20777zm155.09521-31.20777-24 24a42.96118 42.96118 0 0 1 -58.98144 1.61035l14.2959-14.29589a58.532 58.532 0 0 0 15.01538-25.65723h23.32739a7.99943 7.99943 0 0 0 6.65625-3.5625l26.47168-39.70728a42.96693 42.96693 0 0 1 -2.78516 57.61255z"/><path d="m240 200h32v16h-32z"/></svg>